<?xml version="1.0" encoding="utf-8"?>
<!-- Generator: Adobe Illustrator 25.4.1, SVG Export Plug-In . SVG Version: 6.00 Build 0)  -->
<svg version="1.1" id="Layer_1" xmlns="http://www.w3.org/2000/svg" xmlns:xlink="http://www.w3.org/1999/xlink" x="0px" y="0px"
	 viewBox="0 0 443 286.2" style="enable-background:new 0 0 443 286.2;" xml:space="preserve">
<style type="text/css">
	.st0{fill:none;stroke:#989898;stroke-linecap:round;stroke-miterlimit:10;}
	.st1{fill:#007974;}
	.st2{enable-background:new    ;}
	.st3{fill:#010101;}
	.st4{fill:#21B9A1;}
	.st5{fill:#989898;}
</style>
<g id="Layer_2_00000174564898283652846540000008311975353236301720_">
	<g id="Layer_1-2">
		<line class="st0" x1="73.4" y1="169.3" x2="73.4" y2="7.9"/>
		<line class="st0" x1="151.6" y1="162" x2="151.6" y2="169.3"/>
		<line class="st0" x1="234.4" y1="161.3" x2="234.4" y2="168.6"/>
		<line class="st0" x1="322.6" y1="161.3" x2="322.6" y2="168.6"/>
		<line class="st0" x1="415" y1="160.3" x2="415" y2="167.6"/>
		<path class="st1" d="M416,47.2c-90,31.4-136.8,46.4-167.7,53.5c-112.1,25.9-174.9,29.5-174.9,35.8V162H416V47.2z"/>
		<g class="st2">
			<path class="st3" d="M7.5,15.1v-1.6c-1.5-0.1-3.1-0.6-4.1-1.3l0.7-1c0.7,0.5,2.1,1.1,3.4,1.2V8.5l-0.3,0c-2-0.2-3.5-1.1-3.4-2.9
				c0-1.8,1.6-2.9,3.8-3.1V1h1.2v1.5c1.5,0.1,2.7,0.6,3.7,1.2l-0.7,1c-0.8-0.5-1.9-0.9-3-1v3.8l0.3,0c2,0.2,3.6,1.1,3.6,2.9
				c0,1.9-1.7,3-3.9,3.2v1.6H7.5z M7.5,3.7C6.1,3.8,5.1,4.5,5.1,5.6c0,0.9,0.7,1.5,2.4,1.7V3.7z M8.7,12.3c1.5-0.2,2.5-0.8,2.5-1.9
				c0-0.9-0.9-1.5-2.5-1.7V12.3z"/>
		</g>
		<g class="st2">
			<path class="st3" d="M14.8,13.6v-1l4.5-4.5c0.7-0.7,1.2-1.5,1.2-2.4c0-1.3-0.9-2.3-2.5-2.3c-1.4,0-2.1,0.7-2.7,1.4l-1-0.7
				C15,3.3,16,2.3,18.1,2.3c2.4,0,3.8,1.5,3.8,3.5c0,1.4-0.8,2.4-1.6,3.2l-3.6,3.5h5.6v1.2H14.8z"/>
		</g>
		<g class="st2">
			<path class="st3" d="M24.1,15.7l0.5-4.1h1.5l-0.9,4.1H24.1z"/>
			<path class="st3" d="M27.6,12l0.9-0.8c0.8,0.9,2,1.4,3.2,1.4c1.8,0,2.7-1,2.7-2.3c0-1.2-0.9-2.2-3.2-2.2h-2.6l0.2-5.6h6.5v1.2
				h-5.3l-0.1,3.3h1.8c2.8,0,4.2,1.5,4.2,3.3c0,2.3-1.8,3.6-4.1,3.6C30,13.8,28.6,13.2,27.6,12z"/>
			<path class="st3" d="M37.6,8c0-3.6,2.2-5.7,4.9-5.7c2.7,0,5,2.2,5,5.7c0,3.6-2.2,5.7-5,5.7C39.8,13.7,37.6,11.6,37.6,8z M46.1,8
				c0-2.9-1.6-4.6-3.6-4.6c-2,0-3.6,1.6-3.6,4.6c0,2.9,1.6,4.6,3.6,4.6C44.5,12.6,46.1,10.9,46.1,8z"/>
			<path class="st3" d="M49.4,8c0-3.6,2.2-5.7,4.9-5.7c2.7,0,5,2.2,5,5.7c0,3.6-2.2,5.7-5,5.7C51.6,13.7,49.4,11.6,49.4,8z M57.9,8
				c0-2.9-1.6-4.6-3.6-4.6c-2,0-3.6,1.6-3.6,4.6c0,2.9,1.6,4.6,3.6,4.6C56.3,12.6,57.9,10.9,57.9,8z"/>
		</g>
		<rect x="1.9" y="230.9" class="st4" width="15.5" height="15.5"/>
		<g class="st2">
			<path class="st3" d="M30.6,245.4v-5l-5-6.9h1.7l4,5.6l4-5.6h1.7l-5,6.9v5H30.6z"/>
		</g>
		<g class="st2">
			<path class="st3" d="M36.3,241.3c0-2.5,1.8-4.2,4.3-4.2c2.3,0,4,1.7,4,4.2c0,0.2,0,0.3,0,0.5h-6.9c0.2,1.7,1.5,2.6,3,2.6
				c1.1,0,2-0.4,2.7-1l0.7,0.9c-1.1,1-2.3,1.3-3.5,1.3C38.1,245.5,36.3,243.8,36.3,241.3z M43.2,240.8c-0.2-1.5-1.2-2.5-2.7-2.5
				c-1.6,0-2.6,1-2.8,2.5H43.2z"/>
			<path class="st3" d="M46.1,241.3c0-2.4,1.9-4.2,4.3-4.2c1.4,0,2.5,0.5,3.1,1.4v-1.2h1.4v8h-1.4v-1.2c-0.7,0.8-1.7,1.4-3.1,1.4
				C48,245.5,46.1,243.8,46.1,241.3z M53.7,241.3c0-1.7-1.3-3-3.1-3c-1.8,0-3.1,1.3-3.1,3c0,1.7,1.3,3,3.1,3
				C52.4,244.3,53.7,243,53.7,241.3z"/>
			<path class="st3" d="M57.7,245.4v-8h1.3v1.1c0.6-0.8,1.5-1.3,2.6-1.3c0.6,0,1.1,0.1,1.6,0.3l-0.3,1.2c-0.4-0.2-1-0.3-1.5-0.3
				c-1.3,0-2.3,1-2.3,2.5v4.5H57.7z"/>
			<path class="st3" d="M64.9,245.4v-12.2h1.4v12.2H64.9z"/>
		</g>
		<g class="st2">
			<path class="st3" d="M68.3,248.8l3.2-5.1l-4-6.3h1.5l3.2,5l3-5h1.5l-7,11.4H68.3z"/>
		</g>
		<g class="st2">
			<path class="st3" d="M81.6,241.3c0-2.5,1.8-4.2,4.3-4.2c2.3,0,4,1.7,4,4.2c0,0.2,0,0.3,0,0.5H83c0.2,1.7,1.5,2.6,3,2.6
				c1.1,0,2-0.4,2.7-1l0.7,0.9c-1.1,1-2.3,1.3-3.5,1.3C83.4,245.5,81.6,243.8,81.6,241.3z M88.5,240.8c-0.2-1.5-1.2-2.5-2.7-2.5
				c-1.6,0-2.6,1-2.8,2.5H88.5z"/>
			<path class="st3" d="M91.4,241.3c0-2.4,1.9-4.2,4.3-4.2c1.4,0,2.5,0.5,3.1,1.4v-1.2h1.4v8h-1.4v-1.2c-0.7,0.8-1.7,1.4-3.1,1.4
				C93.3,245.5,91.4,243.8,91.4,241.3z M98.9,241.3c0-1.7-1.3-3-3.1-3c-1.8,0-3.1,1.3-3.1,3c0,1.7,1.3,3,3.1,3
				C97.7,244.3,98.9,243,98.9,241.3z"/>
			<path class="st3" d="M103,245.4v-8h1.3v1.1c0.6-0.8,1.5-1.3,2.6-1.3c0.6,0,1.1,0.1,1.6,0.3l-0.3,1.2c-0.4-0.2-1-0.3-1.5-0.3
				c-1.3,0-2.3,1-2.3,2.5v4.5H103z"/>
			<path class="st3" d="M110.2,245.4v-8h1.3v1.1c0.7-1,1.8-1.3,2.9-1.3c2.1,0,3.6,1.3,3.6,3.2v5h-1.4v-4.6c0-1.5-0.9-2.4-2.5-2.4
				c-1.4,0-2.6,0.9-2.6,2.5v4.5H110.2z"/>
			<path class="st3" d="M120.5,234.5c0-0.5,0.4-0.9,1-0.9c0.5,0,1,0.4,1,0.9c0,0.5-0.4,0.9-1,0.9C120.9,235.4,120.5,235,120.5,234.5
				z M120.8,245.4v-8h1.4v8H120.8z"/>
			<path class="st3" d="M125,245.4v-8h1.3v1.1c0.7-1,1.8-1.3,2.9-1.3c2.1,0,3.6,1.3,3.6,3.2v5h-1.4v-4.6c0-1.5-0.9-2.4-2.5-2.4
				c-1.4,0-2.6,0.9-2.6,2.5v4.5H125z"/>
			<path class="st3" d="M135.4,247.8l0.6-1c0.8,0.6,1.9,0.9,3,0.9c1.9,0,3.2-1,3.2-2.9V244c-0.7,0.8-1.7,1.4-3.1,1.4
				c-2.4,0-4.3-1.7-4.3-4.1c0-2.4,1.8-4.1,4.3-4.1c1.4,0,2.4,0.5,3.1,1.4v-1.2h1.4v7.5c0,2.6-1.9,4.1-4.6,4.1
				C137.6,248.9,136.3,248.5,135.4,247.8z M142.3,241.3c0-1.7-1.3-2.9-3-2.9c-1.8,0-3,1.3-3,2.9c0,1.6,1.2,2.9,3,2.9
				C141.1,244.2,142.3,243,142.3,241.3z"/>
			<path class="st3" d="M145.6,244.5l0.6-1c0.7,0.5,1.5,0.9,3,0.9s2.4-0.5,2.4-1.3c0-0.6-0.6-1-1.8-1.2l-1-0.1
				c-1.9-0.2-2.8-1-2.8-2.2c0-1.5,1.4-2.4,3.4-2.4c1.4,0,2.6,0.4,3.4,0.9l-0.6,1c-0.6-0.4-1.7-0.8-2.8-0.8c-1.2,0-2,0.5-2,1.3
				c0,0.7,0.6,1,1.8,1.1l1,0.1c1.8,0.2,2.9,0.9,2.9,2.2c0,1.5-1.5,2.5-3.8,2.5C148.1,245.5,146.7,245.3,145.6,244.5z"/>
			<path class="st3" d="M158.8,241.3c0-2.4,1.9-4.2,4.5-4.2c2.6,0,4.5,1.8,4.5,4.2c0,2.4-1.9,4.2-4.5,4.2
				C160.8,245.5,158.8,243.7,158.8,241.3z M166.5,241.3c0-1.7-1.4-3-3.1-3c-1.8,0-3.1,1.3-3.1,3c0,1.7,1.4,3,3.1,3
				C165.1,244.3,166.5,243.1,166.5,241.3z"/>
			<path class="st3" d="M170.1,245.4v-8h1.3v1.1c0.7-1,1.8-1.3,2.9-1.3c2.1,0,3.6,1.3,3.6,3.2v5h-1.4v-4.6c0-1.5-0.9-2.4-2.5-2.4
				c-1.4,0-2.6,0.9-2.6,2.5v4.5H170.1z"/>
		</g>
		<g class="st2">
			<path class="st3" d="M183.7,248.8l3.2-5.1l-4-6.3h1.5l3.2,5l3-5h1.5l-7,11.4H183.7z"/>
		</g>
		<g class="st2">
			<path class="st3" d="M192.7,241.3c0-2.4,1.9-4.2,4.5-4.2c2.6,0,4.5,1.8,4.5,4.2c0,2.4-1.9,4.2-4.5,4.2
				C194.6,245.5,192.7,243.7,192.7,241.3z M200.3,241.3c0-1.7-1.4-3-3.1-3c-1.8,0-3.1,1.3-3.1,3c0,1.7,1.4,3,3.1,3
				C199,244.3,200.3,243.1,200.3,241.3z"/>
			<path class="st3" d="M203.8,242v-4.7h1.4v4.6c0,1.7,1.1,2.4,2.6,2.4c1.5,0,2.5-0.8,2.5-2.4v-4.6h1.4v4.7c0,2.4-1.8,3.5-3.9,3.5
				C205.6,245.5,203.8,244.4,203.8,242z"/>
		</g>
		<g class="st2">
			<path class="st3" d="M214.3,245.4v-8h1.3v1.1c0.6-0.8,1.5-1.3,2.6-1.3c0.6,0,1.1,0.1,1.6,0.3l-0.3,1.2c-0.4-0.2-1-0.3-1.5-0.3
				c-1.3,0-2.3,1-2.3,2.5v4.5H214.3z"/>
		</g>
		<g class="st2">
			<path class="st3" d="M26.4,259.7c0-2.4,1.9-4.2,4.5-4.2s4.5,1.8,4.5,4.2c0,2.4-1.9,4.2-4.5,4.2S26.4,262.1,26.4,259.7z
				 M34.1,259.7c0-1.7-1.4-3-3.1-3c-1.8,0-3.1,1.3-3.1,3c0,1.7,1.4,3,3.1,3C32.7,262.7,34.1,261.5,34.1,259.7z"/>
			<path class="st3" d="M37.6,263.8v-8H39v1.1c0.6-0.8,1.5-1.3,2.6-1.3c0.6,0,1.1,0.1,1.6,0.3l-0.3,1.2c-0.4-0.2-1-0.3-1.5-0.3
				c-1.3,0-2.3,1-2.3,2.5v4.5H37.6z"/>
			<path class="st3" d="M44.5,252.9c0-0.5,0.4-0.9,1-0.9c0.5,0,1,0.4,1,0.9s-0.4,0.9-1,0.9C44.9,253.8,44.5,253.4,44.5,252.9z
				 M44.8,263.8v-8h1.4v8H44.8z"/>
			<path class="st3" d="M48.9,266.2l0.6-1c0.8,0.6,1.9,0.9,3,0.9c1.9,0,3.2-1,3.2-2.9v-0.8c-0.7,0.8-1.7,1.4-3.1,1.4
				c-2.4,0-4.3-1.7-4.3-4.1c0-2.4,1.8-4.1,4.3-4.1c1.4,0,2.4,0.5,3.1,1.4v-1.2H57v7.5c0,2.6-1.9,4.1-4.6,4.1
				C51.1,267.3,49.7,266.9,48.9,266.2z M55.8,259.7c0-1.7-1.3-2.9-3-2.9c-1.8,0-3,1.3-3,2.9c0,1.6,1.2,2.9,3,2.9
				C54.5,262.6,55.8,261.4,55.8,259.7z"/>
			<path class="st3" d="M59.6,252.9c0-0.5,0.4-0.9,1-0.9c0.5,0,1,0.4,1,0.9s-0.4,0.9-1,0.9C60,253.8,59.6,253.4,59.6,252.9z
				 M59.9,263.8v-8h1.4v8H59.9z"/>
			<path class="st3" d="M64,263.8v-8h1.3v1.1c0.7-1,1.8-1.3,2.9-1.3c2.1,0,3.6,1.3,3.6,3.2v5h-1.4v-4.6c0-1.5-0.9-2.4-2.5-2.4
				c-1.4,0-2.6,0.9-2.6,2.5v4.5H64z"/>
			<path class="st3" d="M73.9,259.7c0-2.4,1.9-4.2,4.3-4.2c1.4,0,2.5,0.5,3.1,1.4v-1.2h1.4v8h-1.4v-1.2c-0.7,0.8-1.7,1.4-3.1,1.4
				C75.8,263.9,73.9,262.2,73.9,259.7z M81.5,259.7c0-1.7-1.3-3-3.1-3c-1.8,0-3.1,1.3-3.1,3c0,1.7,1.3,3,3.1,3
				C80.2,262.7,81.5,261.4,81.5,259.7z"/>
			<path class="st3" d="M85.6,263.8v-12.2h1.4v12.2H85.6z"/>
			<path class="st3" d="M94,252.9c0-0.5,0.4-0.9,1-0.9c0.5,0,1,0.4,1,0.9s-0.4,0.9-1,0.9C94.4,253.8,94,253.4,94,252.9z M94.2,263.8
				v-8h1.4v8H94.2z"/>
		</g>
		<g class="st2">
			<path class="st3" d="M98.1,263.8v-8h1.3v1.1c0.7-1,1.8-1.3,2.9-1.3c2.1,0,3.6,1.3,3.6,3.2v5h-1.4v-4.6c0-1.5-0.9-2.4-2.5-2.4
				c-1.4,0-2.6,0.9-2.6,2.5v4.5H98.1z"/>
		</g>
		<g class="st2">
			<path class="st3" d="M110.8,263.8l-3.7-8.1h1.5l3,6.8l3-6.8h1.4l-3.7,8.1H110.8z"/>
		</g>
		<g class="st2">
			<path class="st3" d="M116.7,259.8c0-2.5,1.8-4.2,4.3-4.2c2.3,0,4,1.7,4,4.2c0,0.2,0,0.3,0,0.5h-6.9c0.2,1.7,1.5,2.6,3,2.6
				c1.1,0,2-0.4,2.7-1l0.7,0.9c-1.1,1-2.3,1.3-3.5,1.3C118.5,263.9,116.7,262.2,116.7,259.8z M123.6,259.2c-0.2-1.5-1.2-2.5-2.7-2.5
				c-1.6,0-2.6,1-2.8,2.5H123.6z"/>
			<path class="st3" d="M126.4,262.9l0.6-1c0.7,0.5,1.5,0.9,3,0.9s2.4-0.5,2.4-1.3c0-0.6-0.6-1-1.8-1.2l-1-0.1
				c-1.9-0.2-2.8-1-2.8-2.2c0-1.5,1.4-2.4,3.4-2.4c1.4,0,2.6,0.4,3.4,0.9l-0.6,1c-0.6-0.4-1.7-0.8-2.8-0.8c-1.2,0-2,0.5-2,1.3
				c0,0.7,0.6,1,1.8,1.1l1,0.1c1.8,0.2,2.9,0.9,2.9,2.2c0,1.5-1.5,2.5-3.8,2.5C128.9,263.9,127.5,263.7,126.4,262.9z"/>
			<path class="st3" d="M136.6,261v-4.1h-1.9v-1.1h1.9v-2.6h1.4v2.6h3.7v1.1h-3.7v4.1c0,1.3,0.7,1.8,1.7,1.8c0.7,0,1.3-0.2,1.8-0.6
				l0.6,1c-0.6,0.5-1.5,0.8-2.6,0.8C137.7,263.9,136.6,263,136.6,261z"/>
			<path class="st3" d="M143.7,263.8v-8h1.3v1.1c0.7-1,1.8-1.3,2.9-1.3c1.5,0,2.7,0.6,3.2,1.7c0.7-1.2,2-1.7,3.2-1.7
				c2.1,0,3.6,1.3,3.6,3.2v5h-1.4v-4.6c0-1.5-0.9-2.4-2.5-2.4c-1.4,0-2.6,0.9-2.6,2.5v4.5h-1.4v-4.6c0-1.5-0.9-2.4-2.5-2.4
				c-1.4,0-2.6,0.9-2.6,2.5v4.5H143.7z"/>
			<path class="st3" d="M160.1,259.8c0-2.5,1.8-4.2,4.3-4.2c2.3,0,4,1.7,4,4.2c0,0.2,0,0.3,0,0.5h-6.9c0.2,1.7,1.5,2.6,3,2.6
				c1.1,0,2-0.4,2.7-1l0.7,0.9c-1.1,1-2.3,1.3-3.5,1.3C161.9,263.9,160.1,262.2,160.1,259.8z M167,259.2c-0.2-1.5-1.2-2.5-2.7-2.5
				c-1.6,0-2.6,1-2.8,2.5H167z"/>
		</g>
		<g class="st2">
			<path class="st3" d="M170.4,263.8v-8h1.3v1.1c0.7-1,1.8-1.3,2.9-1.3c2.1,0,3.6,1.3,3.6,3.2v5h-1.4v-4.6c0-1.5-0.9-2.4-2.5-2.4
				c-1.4,0-2.6,0.9-2.6,2.5v4.5H170.4z"/>
		</g>
		<g class="st2">
			<path class="st3" d="M181.6,261v-4.1h-1.9v-1.1h1.9v-2.6h1.4v2.6h3.7v1.1h-3.7v4.1c0,1.3,0.7,1.8,1.7,1.8c0.7,0,1.3-0.2,1.8-0.6
				l0.6,1c-0.6,0.5-1.5,0.8-2.6,0.8C182.7,263.9,181.6,263,181.6,261z"/>
		</g>
		<rect x="237.2" y="230.9" class="st1" width="15.5" height="15.5"/>
		<g class="st2">
			<path class="st3" d="M261.1,245.4l5.2-11.9h1.8l5.2,11.9h-1.6l-1.4-3.3h-6.3l-1.4,3.3H261.1z M264.6,240.8h5.2l-2.6-5.9
				L264.6,240.8z"/>
		</g>
		<g class="st2">
			<path class="st3" d="M274.2,241.3c0-2.4,1.9-4.2,4.3-4.2c1.4,0,2.5,0.5,3.1,1.4v-5.4h1.4v12.2h-1.4v-1.2
				c-0.7,0.8-1.7,1.4-3.1,1.4C276.1,245.5,274.2,243.8,274.2,241.3z M281.7,241.3c0-1.7-1.3-3-3.1-3c-1.8,0-3.1,1.3-3.1,3
				c0,1.7,1.3,3,3.1,3C280.4,244.3,281.7,243,281.7,241.3z"/>
			<path class="st3" d="M285.2,241.3c0-2.4,1.9-4.2,4.3-4.2c1.4,0,2.5,0.5,3.1,1.4v-5.4h1.4v12.2h-1.4v-1.2
				c-0.7,0.8-1.7,1.4-3.1,1.4C287,245.5,285.2,243.8,285.2,241.3z M292.7,241.3c0-1.7-1.3-3-3.1-3c-1.8,0-3.1,1.3-3.1,3
				c0,1.7,1.3,3,3.1,3C291.4,244.3,292.7,243,292.7,241.3z"/>
			<path class="st3" d="M296.5,234.5c0-0.5,0.4-0.9,1-0.9c0.5,0,1,0.4,1,0.9c0,0.5-0.4,0.9-1,0.9C296.9,235.4,296.5,235,296.5,234.5
				z M296.8,245.4v-8h1.4v8H296.8z"/>
			<path class="st3" d="M301.7,242.6v-4.1h-1.9v-1.1h1.9v-2.6h1.4v2.6h3.7v1.1h-3.7v4.1c0,1.3,0.7,1.8,1.7,1.8
				c0.7,0,1.3-0.2,1.8-0.6l0.6,1c-0.6,0.5-1.5,0.8-2.6,0.8C302.8,245.5,301.7,244.6,301.7,242.6z"/>
			<path class="st3" d="M308.6,234.5c0-0.5,0.4-0.9,1-0.9c0.5,0,1,0.4,1,0.9c0,0.5-0.4,0.9-1,0.9C309,235.4,308.6,235,308.6,234.5z
				 M308.8,245.4v-8h1.4v8H308.8z"/>
			<path class="st3" d="M312.4,241.3c0-2.4,1.9-4.2,4.5-4.2s4.5,1.8,4.5,4.2c0,2.4-1.9,4.2-4.5,4.2S312.4,243.7,312.4,241.3z
				 M320,241.3c0-1.7-1.4-3-3.1-3c-1.8,0-3.1,1.3-3.1,3c0,1.7,1.4,3,3.1,3C318.7,244.3,320,243.1,320,241.3z"/>
			<path class="st3" d="M323.6,245.4v-8h1.3v1.1c0.7-1,1.8-1.3,2.9-1.3c2.1,0,3.6,1.3,3.6,3.2v5h-1.4v-4.6c0-1.5-0.9-2.4-2.5-2.4
				c-1.4,0-2.6,0.9-2.6,2.5v4.5H323.6z"/>
			<path class="st3" d="M333.5,241.3c0-2.4,1.9-4.2,4.3-4.2c1.4,0,2.5,0.5,3.1,1.4v-1.2h1.4v8h-1.4v-1.2c-0.7,0.8-1.7,1.4-3.1,1.4
				C335.4,245.5,333.5,243.8,333.5,241.3z M341,241.3c0-1.7-1.3-3-3.1-3c-1.8,0-3.1,1.3-3.1,3c0,1.7,1.3,3,3.1,3
				C339.8,244.3,341,243,341,241.3z"/>
			<path class="st3" d="M345.1,245.4v-12.2h1.4v12.2H345.1z"/>
		</g>
		<g class="st2">
			<path class="st3" d="M352.4,248.8l3.2-5.1l-4-6.3h1.5l3.2,5l3-5h1.5l-7,11.4H352.4z"/>
		</g>
		<g class="st2">
			<path class="st3" d="M361.5,241.3c0-2.5,1.8-4.2,4.3-4.2c2.3,0,4,1.7,4,4.2c0,0.2,0,0.3,0,0.5h-6.9c0.2,1.7,1.5,2.6,3,2.6
				c1.1,0,2-0.4,2.7-1l0.7,0.9c-1.1,1-2.3,1.3-3.5,1.3C363.3,245.5,361.5,243.8,361.5,241.3z M368.4,240.8c-0.2-1.5-1.2-2.5-2.7-2.5
				c-1.6,0-2.6,1-2.8,2.5H368.4z"/>
			<path class="st3" d="M371.3,241.3c0-2.4,1.9-4.2,4.3-4.2c1.4,0,2.5,0.5,3.1,1.4v-1.2h1.4v8h-1.4v-1.2c-0.7,0.8-1.7,1.4-3.1,1.4
				C373.2,245.5,371.3,243.8,371.3,241.3z M378.8,241.3c0-1.7-1.3-3-3.1-3c-1.8,0-3.1,1.3-3.1,3c0,1.7,1.3,3,3.1,3
				C377.5,244.3,378.8,243,378.8,241.3z"/>
			<path class="st3" d="M382.9,245.4v-8h1.3v1.1c0.6-0.8,1.5-1.3,2.6-1.3c0.6,0,1.1,0.1,1.6,0.3l-0.3,1.2c-0.4-0.2-1-0.3-1.5-0.3
				c-1.3,0-2.3,1-2.3,2.5v4.5H382.9z"/>
			<path class="st3" d="M390.1,245.4v-12.2h1.4v12.2H390.1z"/>
		</g>
		<g class="st2">
			<path class="st3" d="M393.5,248.8l3.2-5.1l-4-6.3h1.5l3.2,5l3-5h1.5l-7,11.4H393.5z"/>
		</g>
		<g class="st2">
			<path class="st3" d="M261.7,259.8c0-2.5,1.8-4.2,4.3-4.2c2.3,0,4,1.7,4,4.2c0,0.2,0,0.3,0,0.5h-6.9c0.2,1.7,1.5,2.6,3,2.6
				c1.1,0,2-0.4,2.7-1l0.7,0.9c-1.1,1-2.3,1.3-3.5,1.3C263.5,263.9,261.7,262.2,261.7,259.8z M268.7,259.2c-0.2-1.5-1.2-2.5-2.7-2.5
				c-1.6,0-2.6,1-2.8,2.5H268.7z"/>
			<path class="st3" d="M271.5,259.7c0-2.4,1.9-4.2,4.3-4.2c1.4,0,2.5,0.5,3.1,1.4v-1.2h1.4v8H279v-1.2c-0.7,0.8-1.7,1.4-3.1,1.4
				C273.4,263.9,271.5,262.2,271.5,259.7z M279.1,259.7c0-1.7-1.3-3-3.1-3c-1.8,0-3.1,1.3-3.1,3c0,1.7,1.3,3,3.1,3
				C277.8,262.7,279.1,261.4,279.1,259.7z"/>
			<path class="st3" d="M283.2,263.8v-8h1.3v1.1c0.6-0.8,1.5-1.3,2.6-1.3c0.6,0,1.1,0.1,1.6,0.3l-0.3,1.2c-0.4-0.2-1-0.3-1.5-0.3
				c-1.3,0-2.3,1-2.3,2.5v4.5H283.2z"/>
			<path class="st3" d="M290.4,263.8v-8h1.3v1.1c0.7-1,1.8-1.3,2.9-1.3c2.1,0,3.6,1.3,3.6,3.2v5h-1.4v-4.6c0-1.5-0.9-2.4-2.5-2.4
				c-1.4,0-2.6,0.9-2.6,2.5v4.5H290.4z"/>
			<path class="st3" d="M300.6,252.9c0-0.5,0.4-0.9,1-0.9c0.5,0,1,0.4,1,0.9s-0.4,0.9-1,0.9C301.1,253.8,300.6,253.4,300.6,252.9z
				 M300.9,263.8v-8h1.4v8H300.9z"/>
			<path class="st3" d="M305.1,263.8v-8h1.3v1.1c0.7-1,1.8-1.3,2.9-1.3c2.1,0,3.6,1.3,3.6,3.2v5h-1.4v-4.6c0-1.5-0.9-2.4-2.5-2.4
				c-1.4,0-2.6,0.9-2.6,2.5v4.5H305.1z"/>
			<path class="st3" d="M315.5,266.2l0.6-1c0.8,0.6,1.9,0.9,3,0.9c1.9,0,3.2-1,3.2-2.9v-0.8c-0.7,0.8-1.7,1.4-3.1,1.4
				c-2.4,0-4.3-1.7-4.3-4.1c0-2.4,1.8-4.1,4.3-4.1c1.4,0,2.4,0.5,3.1,1.4v-1.2h1.4v7.5c0,2.6-1.9,4.1-4.6,4.1
				C317.8,267.3,316.4,266.9,315.5,266.2z M322.5,259.7c0-1.7-1.3-2.9-3-2.9c-1.8,0-3,1.3-3,2.9c0,1.6,1.2,2.9,3,2.9
				C321.2,262.6,322.5,261.4,322.5,259.7z"/>
			<path class="st3" d="M325.7,262.9l0.6-1c0.7,0.5,1.5,0.9,3,0.9s2.4-0.5,2.4-1.3c0-0.6-0.6-1-1.8-1.2l-1-0.1
				c-1.9-0.2-2.8-1-2.8-2.2c0-1.5,1.4-2.4,3.4-2.4c1.4,0,2.6,0.4,3.4,0.9l-0.6,1c-0.6-0.4-1.7-0.8-2.8-0.8c-1.2,0-2,0.5-2,1.3
				c0,0.7,0.6,1,1.8,1.1l1,0.1c1.8,0.2,2.9,0.9,2.9,2.2c0,1.5-1.5,2.5-3.8,2.5C328.2,263.9,326.8,263.7,325.7,262.9z"/>
		</g>
		<g class="st2">
			<path class="st3" d="M340,263.8v-6.9h-2v-1.1h2v-1.4c0-1.7,0.8-3,2.9-3c1,0,1.7,0.3,2.4,0.6l-0.5,1.1c-0.5-0.3-1.1-0.5-1.8-0.5
				c-1.1,0-1.6,0.7-1.6,1.8v1.4h3.4v1.1h-3.4v6.9H340z"/>
		</g>
		<g class="st2">
			<path class="st3" d="M346.4,263.8v-8h1.3v1.1c0.6-0.8,1.5-1.3,2.6-1.3c0.6,0,1.1,0.1,1.6,0.3l-0.3,1.2c-0.4-0.2-1-0.3-1.5-0.3
				c-1.3,0-2.3,1-2.3,2.5v4.5H346.4z"/>
		</g>
		<g class="st2">
			<path class="st3" d="M352.5,259.7c0-2.4,1.9-4.2,4.5-4.2s4.5,1.8,4.5,4.2c0,2.4-1.9,4.2-4.5,4.2S352.5,262.1,352.5,259.7z
				 M360.2,259.7c0-1.7-1.4-3-3.1-3c-1.8,0-3.1,1.3-3.1,3c0,1.7,1.4,3,3.1,3C358.8,262.7,360.2,261.5,360.2,259.7z"/>
			<path class="st3" d="M363.7,263.8v-8h1.3v1.1c0.7-1,1.8-1.3,2.9-1.3c1.5,0,2.7,0.6,3.2,1.7c0.7-1.2,2-1.7,3.2-1.7
				c2.1,0,3.6,1.3,3.6,3.2v5h-1.4v-4.6c0-1.5-0.9-2.4-2.5-2.4c-1.4,0-2.6,0.9-2.6,2.5v4.5h-1.4v-4.6c0-1.5-0.9-2.4-2.5-2.4
				c-1.4,0-2.6,0.9-2.6,2.5v4.5H363.7z"/>
			<path class="st3" d="M385.3,263.8v-12.2h1.4v12.2H385.3z"/>
			<path class="st3" d="M388.8,259.8c0-2.5,1.8-4.2,4.3-4.2c2.3,0,4,1.7,4,4.2c0,0.2,0,0.3,0,0.5h-6.9c0.2,1.7,1.5,2.6,3,2.6
				c1.1,0,2-0.4,2.7-1l0.7,0.9c-1.1,1-2.3,1.3-3.5,1.3C390.6,263.9,388.8,262.2,388.8,259.8z M395.7,259.2c-0.2-1.5-1.2-2.5-2.7-2.5
				c-1.6,0-2.6,1-2.8,2.5H395.7z"/>
			<path class="st3" d="M398.6,259.7c0-2.4,1.9-4.2,4.3-4.2c1.4,0,2.5,0.5,3.1,1.4v-1.2h1.4v8h-1.4v-1.2c-0.7,0.8-1.7,1.4-3.1,1.4
				C400.5,263.9,398.6,262.2,398.6,259.7z M406.2,259.7c0-1.7-1.3-3-3.1-3c-1.8,0-3.1,1.3-3.1,3c0,1.7,1.3,3,3.1,3
				C404.9,262.7,406.2,261.4,406.2,259.7z"/>
			<path class="st3" d="M412.6,263.8l-3.7-8.1h1.5l3,6.8l3-6.8h1.4l-3.7,8.1H412.6z"/>
			<path class="st3" d="M419.1,252.9c0-0.5,0.4-0.9,1-0.9c0.5,0,1,0.4,1,0.9s-0.4,0.9-1,0.9C419.5,253.8,419.1,253.4,419.1,252.9z
				 M419.4,263.8v-8h1.4v8H419.4z"/>
			<path class="st3" d="M423.6,263.8v-8h1.3v1.1c0.7-1,1.8-1.3,2.9-1.3c2.1,0,3.6,1.3,3.6,3.2v5H430v-4.6c0-1.5-0.9-2.4-2.5-2.4
				c-1.4,0-2.6,0.9-2.6,2.5v4.5H423.6z"/>
			<path class="st3" d="M434,266.2l0.6-1c0.8,0.6,1.9,0.9,3,0.9c1.9,0,3.2-1,3.2-2.9v-0.8c-0.7,0.8-1.7,1.4-3.1,1.4
				c-2.4,0-4.3-1.7-4.3-4.1c0-2.4,1.8-4.1,4.3-4.1c1.4,0,2.4,0.5,3.1,1.4v-1.2h1.4v7.5c0,2.6-1.9,4.1-4.6,4.1
				C436.2,267.3,434.9,266.9,434,266.2z M440.9,259.7c0-1.7-1.3-2.9-3-2.9c-1.8,0-3,1.3-3,2.9c0,1.6,1.2,2.9,3,2.9
				C439.7,262.6,440.9,261.4,440.9,259.7z"/>
		</g>
		<g class="st2">
			<path class="st3" d="M261.7,278.2c0-2.5,1.8-4.2,4.3-4.2c2.3,0,4,1.7,4,4.2c0,0.2,0,0.3,0,0.5h-6.9c0.2,1.7,1.5,2.6,3,2.6
				c1.1,0,2-0.4,2.7-1l0.7,0.9c-1.1,1-2.3,1.3-3.5,1.3C263.5,282.3,261.7,280.6,261.7,278.2z M268.7,277.6c-0.2-1.5-1.2-2.5-2.7-2.5
				c-1.6,0-2.6,1-2.8,2.5H268.7z"/>
			<path class="st3" d="M271.5,278.1c0-2.4,1.9-4.2,4.3-4.2c1.4,0,2.5,0.5,3.1,1.4v-1.2h1.4v8H279V281c-0.7,0.8-1.7,1.4-3.1,1.4
				C273.4,282.3,271.5,280.6,271.5,278.1z M279.1,278.1c0-1.7-1.3-3-3.1-3c-1.8,0-3.1,1.3-3.1,3c0,1.7,1.3,3,3.1,3
				C277.8,281.1,279.1,279.8,279.1,278.1z"/>
			<path class="st3" d="M283.2,282.2v-8h1.3v1.1c0.6-0.8,1.5-1.3,2.6-1.3c0.6,0,1.1,0.1,1.6,0.3l-0.3,1.2c-0.4-0.2-1-0.3-1.5-0.3
				c-1.3,0-2.3,1-2.3,2.5v4.5H283.2z"/>
			<path class="st3" d="M290.4,282.2v-8h1.3v1.1c0.7-1,1.8-1.3,2.9-1.3c2.1,0,3.6,1.3,3.6,3.2v5h-1.4v-4.6c0-1.5-0.9-2.4-2.5-2.4
				c-1.4,0-2.6,0.9-2.6,2.5v4.5H290.4z"/>
			<path class="st3" d="M300.6,271.3c0-0.5,0.4-0.9,1-0.9c0.5,0,1,0.4,1,0.9s-0.4,0.9-1,0.9C301.1,272.2,300.6,271.8,300.6,271.3z
				 M300.9,282.2v-8h1.4v8H300.9z"/>
			<path class="st3" d="M305.1,282.2v-8h1.3v1.1c0.7-1,1.8-1.3,2.9-1.3c2.1,0,3.6,1.3,3.6,3.2v5h-1.4v-4.6c0-1.5-0.9-2.4-2.5-2.4
				c-1.4,0-2.6,0.9-2.6,2.5v4.5H305.1z"/>
			<path class="st3" d="M315.5,284.6l0.6-1c0.8,0.6,1.9,0.9,3,0.9c1.9,0,3.2-1,3.2-2.9v-0.8c-0.7,0.8-1.7,1.4-3.1,1.4
				c-2.4,0-4.3-1.7-4.3-4.1c0-2.4,1.8-4.1,4.3-4.1c1.4,0,2.4,0.5,3.1,1.4v-1.2h1.4v7.5c0,2.6-1.9,4.1-4.6,4.1
				C317.8,285.7,316.4,285.3,315.5,284.6z M322.5,278.1c0-1.7-1.3-2.9-3-2.9c-1.8,0-3,1.3-3,2.9c0,1.6,1.2,2.9,3,2.9
				C321.2,281,322.5,279.8,322.5,278.1z"/>
			<path class="st3" d="M325.7,281.3l0.6-1c0.7,0.5,1.5,0.9,3,0.9s2.4-0.5,2.4-1.3c0-0.6-0.6-1-1.8-1.2l-1-0.1
				c-1.9-0.2-2.8-1-2.8-2.2c0-1.5,1.4-2.4,3.4-2.4c1.4,0,2.6,0.4,3.4,0.9l-0.6,1c-0.6-0.4-1.7-0.8-2.8-0.8c-1.2,0-2,0.5-2,1.3
				c0,0.7,0.6,1,1.8,1.1l1,0.1c1.8,0.2,2.9,0.9,2.9,2.2c0,1.5-1.5,2.5-3.8,2.5C328.2,282.3,326.8,282.1,325.7,281.3z"/>
			<path class="st3" d="M339.4,271.3c0-0.5,0.4-0.9,1-0.9c0.5,0,1,0.4,1,0.9s-0.4,0.9-1,0.9C339.8,272.2,339.4,271.8,339.4,271.3z
				 M339.6,282.2v-8h1.4v8H339.6z"/>
		</g>
		<g class="st2">
			<path class="st3" d="M343.5,282.2v-8h1.3v1.1c0.7-1,1.8-1.3,2.9-1.3c2.1,0,3.6,1.3,3.6,3.2v5h-1.4v-4.6c0-1.5-0.9-2.4-2.5-2.4
				c-1.4,0-2.6,0.9-2.6,2.5v4.5H343.5z"/>
		</g>
		<g class="st2">
			<path class="st3" d="M356.1,282.2l-3.7-8.1h1.5l3,6.8l3-6.8h1.4l-3.7,8.1H356.1z"/>
		</g>
		<g class="st2">
			<path class="st3" d="M362.1,278.2c0-2.5,1.8-4.2,4.3-4.2c2.3,0,4,1.7,4,4.2c0,0.2,0,0.3,0,0.5h-6.9c0.2,1.7,1.5,2.6,3,2.6
				c1.1,0,2-0.4,2.7-1l0.7,0.9c-1.1,1-2.3,1.3-3.5,1.3C363.9,282.3,362.1,280.6,362.1,278.2z M369,277.6c-0.2-1.5-1.2-2.5-2.7-2.5
				c-1.6,0-2.6,1-2.8,2.5H369z"/>
			<path class="st3" d="M371.8,281.3l0.6-1c0.7,0.5,1.5,0.9,3,0.9s2.4-0.5,2.4-1.3c0-0.6-0.6-1-1.8-1.2l-1-0.1
				c-1.9-0.2-2.8-1-2.8-2.2c0-1.5,1.4-2.4,3.4-2.4c1.4,0,2.6,0.4,3.4,0.9l-0.6,1c-0.6-0.4-1.7-0.8-2.8-0.8c-1.2,0-2,0.5-2,1.3
				c0,0.7,0.6,1,1.8,1.1l1,0.1c1.8,0.2,2.9,0.9,2.9,2.2c0,1.5-1.5,2.5-3.8,2.5C374.3,282.3,372.9,282.1,371.8,281.3z"/>
		</g>
		<g class="st2">
			<path class="st3" d="M381.9,279.4v-4.1H380v-1.1h1.9v-2.6h1.4v2.6h3.7v1.1h-3.7v4.1c0,1.3,0.7,1.8,1.7,1.8c0.7,0,1.3-0.2,1.8-0.6
				l0.6,1c-0.6,0.5-1.5,0.8-2.6,0.8C383,282.3,381.9,281.4,381.9,279.4z"/>
		</g>
		<g class="st2">
			<path class="st3" d="M388.3,278.2c0-2.5,1.8-4.2,4.3-4.2c2.3,0,4,1.7,4,4.2c0,0.2,0,0.3,0,0.5h-6.9c0.2,1.7,1.5,2.6,3,2.6
				c1.1,0,2-0.4,2.7-1l0.7,0.9c-1.1,1-2.3,1.3-3.5,1.3C390.1,282.3,388.3,280.6,388.3,278.2z M395.2,277.6c-0.2-1.5-1.2-2.5-2.7-2.5
				c-1.6,0-2.6,1-2.8,2.5H395.2z"/>
			<path class="st3" d="M398.1,278.1c0-2.4,1.9-4.2,4.3-4.2c1.4,0,2.5,0.5,3.1,1.4v-5.4h1.4v12.2h-1.4V281c-0.7,0.8-1.7,1.4-3.1,1.4
				C400,282.3,398.1,280.6,398.1,278.1z M405.6,278.1c0-1.7-1.3-3-3.1-3c-1.8,0-3.1,1.3-3.1,3c0,1.7,1.3,3,3.1,3
				C404.4,281.1,405.6,279.8,405.6,278.1z"/>
		</g>
		<g class="st2">
			<path class="st3" d="M5.5,47.1v-1.6c-1.5-0.1-3.1-0.6-4.1-1.3l0.7-1c0.7,0.5,2.1,1.1,3.4,1.2v-3.8l-0.3,0c-2-0.2-3.5-1.1-3.4-2.9
				c0-1.8,1.6-2.9,3.8-3.1v-1.5h1.2v1.5c1.5,0.1,2.7,0.6,3.7,1.2l-0.7,1c-0.8-0.5-1.9-0.9-3-1v3.8l0.3,0c2,0.2,3.6,1.1,3.6,2.9
				c0,1.9-1.7,3-3.9,3.2v1.6H5.5z M5.5,35.6c-1.4,0.2-2.4,0.8-2.4,1.9c0,0.9,0.7,1.5,2.4,1.7V35.6z M6.7,44.3
				c1.5-0.2,2.5-0.8,2.5-1.9c0-0.9-0.9-1.5-2.5-1.7V44.3z"/>
		</g>
		<g class="st2">
			<path class="st3" d="M12.7,45.6v-1l4.5-4.5c0.7-0.7,1.2-1.5,1.2-2.4c0-1.3-0.9-2.3-2.5-2.3c-1.4,0-2.1,0.7-2.7,1.4l-1-0.7
				c0.6-0.8,1.6-1.9,3.7-1.9c2.4,0,3.8,1.5,3.8,3.5c0,1.4-0.8,2.4-1.6,3.2l-3.6,3.5h5.6v1.2H12.7z"/>
		</g>
		<g class="st2">
			<path class="st3" d="M22,47.7l0.5-4.1h1.5l-0.9,4.1H22z"/>
		</g>
		<g class="st2">
			<path class="st3" d="M25.8,40c0-3.6,2.2-5.7,4.9-5.7c2.7,0,5,2.2,5,5.7c0,3.6-2.2,5.7-5,5.7C28,45.7,25.8,43.6,25.8,40z M34.3,40
				c0-2.9-1.6-4.6-3.6-4.6c-2,0-3.6,1.6-3.6,4.6c0,2.9,1.6,4.6,3.6,4.6C32.7,44.5,34.3,42.9,34.3,40z"/>
			<path class="st3" d="M37.6,40c0-3.6,2.2-5.7,4.9-5.7c2.7,0,5,2.2,5,5.7c0,3.6-2.2,5.7-5,5.7C39.8,45.7,37.6,43.6,37.6,40z
				 M46.1,40c0-2.9-1.6-4.6-3.6-4.6c-2,0-3.6,1.6-3.6,4.6c0,2.9,1.6,4.6,3.6,4.6C44.5,44.5,46.1,42.9,46.1,40z"/>
			<path class="st3" d="M49.4,40c0-3.6,2.2-5.7,4.9-5.7c2.7,0,5,2.2,5,5.7c0,3.6-2.2,5.7-5,5.7C51.6,45.7,49.4,43.6,49.4,40z
				 M57.9,40c0-2.9-1.6-4.6-3.6-4.6c-2,0-3.6,1.6-3.6,4.6c0,2.9,1.6,4.6,3.6,4.6C56.3,44.5,57.9,42.9,57.9,40z"/>
		</g>
		<g class="st2">
			<path class="st3" d="M10,79.1v-1.6c-1.5-0.1-3.1-0.6-4.1-1.3l0.7-1c0.7,0.5,2.1,1.1,3.4,1.2v-3.8l-0.3,0c-2-0.2-3.5-1.1-3.4-2.9
				c0-1.8,1.6-2.9,3.8-3.1v-1.5h1.2v1.5c1.5,0.1,2.7,0.6,3.7,1.2l-0.7,1c-0.8-0.5-1.9-0.9-3-1v3.8l0.3,0c2,0.2,3.6,1.1,3.6,2.9
				c0,1.9-1.7,3-3.9,3.2v1.6H10z M10,67.6c-1.4,0.2-2.4,0.8-2.4,1.9c0,0.9,0.7,1.5,2.4,1.7V67.6z M11.2,76.3
				c1.5-0.2,2.5-0.8,2.5-1.9c0-0.9-0.9-1.5-2.5-1.7V76.3z"/>
			<path class="st3" d="M20.2,77.6V68l-3.5,1.4v-1.3l4.9-1.9v11.3H20.2z"/>
			<path class="st3" d="M24.1,79.6l0.5-4.1h1.5l-0.9,4.1H24.1z"/>
			<path class="st3" d="M27.6,76l0.9-0.8c0.8,0.9,2,1.4,3.2,1.4c1.8,0,2.7-1,2.7-2.3c0-1.2-0.9-2.2-3.2-2.2h-2.6l0.2-5.6h6.5v1.2
				h-5.3l-0.1,3.3h1.8c2.8,0,4.2,1.5,4.2,3.3c0,2.3-1.8,3.6-4.1,3.6C30,77.7,28.6,77.1,27.6,76z"/>
			<path class="st3" d="M37.6,72c0-3.6,2.2-5.7,4.9-5.7c2.7,0,5,2.2,5,5.7c0,3.6-2.2,5.7-5,5.7C39.8,77.7,37.6,75.6,37.6,72z
				 M46.1,72c0-2.9-1.6-4.6-3.6-4.6c-2,0-3.6,1.6-3.6,4.6c0,2.9,1.6,4.6,3.6,4.6C44.5,76.5,46.1,74.9,46.1,72z"/>
			<path class="st3" d="M49.4,72c0-3.6,2.2-5.7,4.9-5.7c2.7,0,5,2.2,5,5.7c0,3.6-2.2,5.7-5,5.7C51.6,77.7,49.4,75.6,49.4,72z
				 M57.9,72c0-2.9-1.6-4.6-3.6-4.6c-2,0-3.6,1.6-3.6,4.6c0,2.9,1.6,4.6,3.6,4.6C56.3,76.5,57.9,74.9,57.9,72z"/>
		</g>
		<g class="st2">
			<path class="st3" d="M8,111v-1.6c-1.5-0.1-3.1-0.6-4.1-1.3l0.7-1c0.7,0.5,2.1,1.1,3.4,1.2v-3.8l-0.3,0c-2-0.2-3.5-1.1-3.4-2.9
				c0-1.8,1.6-2.9,3.8-3.1v-1.5h1.2v1.5c1.5,0.1,2.7,0.6,3.7,1.2l-0.7,1c-0.8-0.5-1.9-0.9-3-1v3.8l0.3,0c2,0.2,3.6,1.1,3.6,2.9
				c0,1.9-1.7,3-3.9,3.2v1.6H8z M8,99.6c-1.4,0.2-2.4,0.8-2.4,1.9c0,0.9,0.7,1.5,2.4,1.7V99.6z M9.1,108.3c1.5-0.2,2.5-0.8,2.5-1.9
				c0-0.9-0.9-1.5-2.5-1.7V108.3z"/>
			<path class="st3" d="M18.2,109.5V100l-3.5,1.4v-1.3l4.9-1.9v11.3H18.2z"/>
		</g>
		<g class="st2">
			<path class="st3" d="M22,111.6l0.5-4.1h1.5l-0.9,4.1H22z"/>
		</g>
		<g class="st2">
			<path class="st3" d="M25.8,104c0-3.6,2.2-5.7,4.9-5.7c2.7,0,5,2.2,5,5.7c0,3.6-2.2,5.7-5,5.7C28,109.7,25.8,107.5,25.8,104z
				 M34.3,104c0-2.9-1.6-4.6-3.6-4.6c-2,0-3.6,1.6-3.6,4.6c0,2.9,1.6,4.6,3.6,4.6C32.7,108.5,34.3,106.9,34.3,104z"/>
			<path class="st3" d="M37.6,104c0-3.6,2.2-5.7,4.9-5.7c2.7,0,5,2.2,5,5.7c0,3.6-2.2,5.7-5,5.7C39.8,109.7,37.6,107.5,37.6,104z
				 M46.1,104c0-2.9-1.6-4.6-3.6-4.6c-2,0-3.6,1.6-3.6,4.6c0,2.9,1.6,4.6,3.6,4.6C44.5,108.5,46.1,106.9,46.1,104z"/>
			<path class="st3" d="M49.4,104c0-3.6,2.2-5.7,4.9-5.7c2.7,0,5,2.2,5,5.7c0,3.6-2.2,5.7-5,5.7C51.6,109.7,49.4,107.5,49.4,104z
				 M57.9,104c0-2.9-1.6-4.6-3.6-4.6c-2,0-3.6,1.6-3.6,4.6c0,2.9,1.6,4.6,3.6,4.6C56.3,108.5,57.9,106.9,57.9,104z"/>
		</g>
		<g class="st2">
			<path class="st3" d="M20.8,143v-1.6c-1.5-0.1-3.1-0.6-4.1-1.3l0.7-1c0.7,0.5,2.1,1.1,3.4,1.2v-3.8l-0.3,0c-2-0.2-3.5-1.1-3.4-2.9
				c0-1.8,1.6-2.9,3.8-3.1v-1.5h1.2v1.5c1.5,0.1,2.7,0.6,3.7,1.2l-0.7,1c-0.8-0.5-1.9-0.9-3-1v3.8l0.3,0c2,0.2,3.6,1.1,3.6,2.9
				c0,1.9-1.7,3-3.9,3.2v1.6H20.8z M20.8,131.6c-1.4,0.2-2.4,0.8-2.4,1.9c0,0.9,0.7,1.5,2.4,1.7V131.6z M21.9,140.3
				c1.5-0.2,2.5-0.8,2.5-1.9c0-0.9-0.9-1.5-2.5-1.7V140.3z"/>
			<path class="st3" d="M27.6,139.9l0.9-0.8c0.8,0.9,2,1.4,3.2,1.4c1.8,0,2.7-1,2.7-2.3c0-1.2-0.9-2.2-3.2-2.2h-2.6l0.2-5.6h6.5v1.2
				h-5.3l-0.1,3.3h1.8c2.8,0,4.2,1.5,4.2,3.3c0,2.3-1.8,3.6-4.1,3.6C30,141.7,28.6,141.1,27.6,139.9z"/>
			<path class="st3" d="M37.6,135.9c0-3.6,2.2-5.7,4.9-5.7c2.7,0,5,2.2,5,5.7c0,3.6-2.2,5.7-5,5.7C39.8,141.7,37.6,139.5,37.6,135.9
				z M46.1,135.9c0-2.9-1.6-4.6-3.6-4.6c-2,0-3.6,1.6-3.6,4.6c0,2.9,1.6,4.6,3.6,4.6C44.5,140.5,46.1,138.9,46.1,135.9z"/>
			<path class="st3" d="M49.4,135.9c0-3.6,2.2-5.7,4.9-5.7c2.7,0,5,2.2,5,5.7c0,3.6-2.2,5.7-5,5.7C51.6,141.7,49.4,139.5,49.4,135.9
				z M57.9,135.9c0-2.9-1.6-4.6-3.6-4.6c-2,0-3.6,1.6-3.6,4.6c0,2.9,1.6,4.6,3.6,4.6C56.3,140.5,57.9,138.9,57.9,135.9z"/>
		</g>
		<g class="st2">
			<path class="st5" d="M73.9,187.1v-9.5l-3.5,1.4v-1.3l4.9-1.9v11.3H73.9z"/>
		</g>
		<line class="st0" x1="73.4" y1="136.6" x2="66.1" y2="136.6"/>
		<line class="st0" x1="73.4" y1="104.6" x2="66.1" y2="104.6"/>
		<line class="st0" x1="73.4" y1="72.6" x2="66.1" y2="72.6"/>
		<line class="st0" x1="73.4" y1="40.6" x2="66.1" y2="40.6"/>
		<line class="st0" x1="73.4" y1="8.6" x2="66.1" y2="8.6"/>
		<rect x="73.4" y="136.6" class="st4" width="342.7" height="25.4"/>
		<g class="st2">
			<path class="st5" d="M402.4,187.1v-1l4.5-4.5c0.7-0.7,1.2-1.5,1.2-2.4c0-1.3-0.9-2.3-2.5-2.3c-1.4,0-2.1,0.7-2.7,1.4l-1-0.7
				c0.6-0.8,1.6-1.9,3.7-1.9c2.4,0,3.8,1.5,3.8,3.5c0,1.4-0.8,2.4-1.6,3.2l-3.6,3.5h5.6v1.2H402.4z"/>
			<path class="st5" d="M411.5,181.5c0-3.6,2.2-5.7,4.9-5.7c2.7,0,5,2.2,5,5.7c0,3.6-2.2,5.7-5,5.7
				C413.7,187.2,411.5,185.1,411.5,181.5z M420,181.5c0-2.9-1.6-4.6-3.6-4.6c-2,0-3.6,1.6-3.6,4.6c0,2.9,1.6,4.6,3.6,4.6
				C418.4,186,420,184.4,420,181.5z"/>
		</g>
		<g class="st2">
			<path class="st5" d="M147,185.5l0.9-0.8c0.8,0.9,2,1.4,3.2,1.4c1.8,0,2.7-1,2.7-2.3c0-1.2-0.9-2.2-3.2-2.2h-2.6l0.2-5.6h6.5v1.2
				h-5.3l-0.1,3.3h1.8c2.8,0,4.2,1.5,4.2,3.3c0,2.3-1.8,3.6-4.1,3.6C149.4,187.2,148,186.6,147,185.5z"/>
		</g>
		<g class="st2">
			<path class="st5" d="M229.9,187.1v-9.5l-3.5,1.4v-1.3l4.9-1.9v11.3H229.9z"/>
			<path class="st5" d="M233.8,181.5c0-3.6,2.2-5.7,4.9-5.7c2.7,0,5,2.2,5,5.7c0,3.6-2.2,5.7-5,5.7
				C236,187.2,233.8,185.1,233.8,181.5z M242.3,181.5c0-2.9-1.6-4.6-3.6-4.6c-2,0-3.6,1.6-3.6,4.6c0,2.9,1.6,4.6,3.6,4.6
				C240.7,186,242.3,184.4,242.3,181.5z"/>
		</g>
		<g class="st2">
			<path class="st5" d="M318.7,187.1v-9.5l-3.5,1.4v-1.3l4.9-1.9v11.3H318.7z"/>
			<path class="st5" d="M322.2,185.5l0.9-0.8c0.8,0.9,2,1.4,3.2,1.4c1.8,0,2.7-1,2.7-2.3c0-1.2-0.9-2.2-3.2-2.2h-2.6l0.2-5.6h6.5
				v1.2h-5.3l-0.1,3.3h1.8c2.8,0,4.2,1.5,4.2,3.3c0,2.3-1.8,3.6-4.1,3.6C324.6,187.2,323.3,186.6,322.2,185.5z"/>
		</g>
		<g class="st2">
			<path class="st3" d="M219.3,214.3v-5l-5-6.9h1.7l4,5.6l4-5.6h1.7l-5,6.9v5H219.3z"/>
		</g>
		<g class="st2">
			<path class="st3" d="M225.4,210.3c0-2.5,1.8-4.2,4.3-4.2c2.3,0,4,1.7,4,4.2c0,0.2,0,0.3,0,0.5h-6.9c0.2,1.7,1.5,2.6,3,2.6
				c1.1,0,2-0.4,2.7-1l0.7,0.9c-1.1,1-2.3,1.3-3.5,1.3C227.2,214.5,225.4,212.8,225.4,210.3z M232.3,209.7c-0.2-1.5-1.2-2.5-2.7-2.5
				c-1.6,0-2.6,1-2.8,2.5H232.3z"/>
			<path class="st3" d="M235.6,210.3c0-2.4,1.9-4.2,4.3-4.2c1.4,0,2.5,0.5,3.1,1.4v-1.2h1.4v8H243v-1.2c-0.7,0.8-1.7,1.4-3.1,1.4
				C237.5,214.5,235.6,212.7,235.6,210.3z M243.1,210.3c0-1.7-1.3-3-3.1-3c-1.8,0-3.1,1.3-3.1,3c0,1.7,1.3,3,3.1,3
				C241.9,213.3,243.1,212,243.1,210.3z"/>
		</g>
		<g class="st2">
			<path class="st3" d="M247.6,214.3v-8h1.3v1.1c0.6-0.8,1.5-1.3,2.6-1.3c0.6,0,1.1,0.1,1.6,0.3l-0.3,1.2c-0.4-0.2-1-0.3-1.5-0.3
				c-1.3,0-2.3,1-2.3,2.5v4.5H247.6z"/>
		</g>
		<g class="st2">
			<path class="st3" d="M254.2,213.4l0.6-1c0.7,0.5,1.5,0.9,3,0.9s2.4-0.5,2.4-1.3c0-0.6-0.6-1-1.8-1.2l-1-0.1
				c-1.9-0.2-2.8-1-2.8-2.2c0-1.5,1.4-2.4,3.4-2.4c1.4,0,2.6,0.4,3.4,0.9l-0.6,1c-0.6-0.4-1.7-0.8-2.8-0.8c-1.2,0-2,0.5-2,1.3
				c0,0.7,0.6,1,1.8,1.1l1,0.1c1.8,0.2,2.9,0.9,2.9,2.2c0,1.5-1.5,2.5-3.8,2.5C256.7,214.5,255.3,214.2,254.2,213.4z"/>
		</g>
	</g>
</g>
</svg>
